<?xml version="1.0" standalone="no"?>
<!DOCTYPE svg PUBLIC "-//W3C//DTD SVG 20010904//EN"
 "http://www.w3.org/TR/2001/REC-SVG-20010904/DTD/svg10.dtd">
<svg version="1.0" xmlns="http://www.w3.org/2000/svg"
 width="760.000000pt" height="760.000000pt" viewBox="0 0 760.000000 760.000000"
 preserveAspectRatio="xMidYMid meet">
<metadata>
Created by potrace 1.11, written by Peter Selinger 2001-2013
</metadata>
<g transform="translate(0.000000,760.000000) scale(0.100000,-0.100000)"
fill="#000000" stroke="none">
<path d="M840 7589 c-144 -40 -249 -138 -297 -278 l-22 -66 -1 -3441 c0 -3137
1 -3445 16 -3495 43 -145 137 -241 289 -294 34 -12 470 -15 2966 -15 2897 0
2927 0 2991 20 85 26 217 121 218 157 0 6 3 13 8 15 13 6 39 61 56 117 14 49
16 370 16 3491 0 3128 -2 3441 -16 3491 -25 82 -50 126 -109 184 -57 58 -89
77 -173 106 -53 18 -143 19 -2981 18 -1850 0 -2939 -4 -2961 -10z m120 -29 c8
5 17 7 20 5 9 -6 54 -7 195 -5 66 1 125 1 130 0 6 -1 15 -2 20 -1 6 1 60 1
120 1 61 -1 117 -1 125 -1 168 2 207 2 215 1 6 -2 15 -2 20 -1 6 1 60 1 120 1
61 -1 117 -1 125 -1 168 2 207 2 215 1 6 -2 15 -2 20 -1 6 1 60 1 120 1 61 -1
117 -1 125 -1 168 2 207 2 215 1 6 -2 15 -2 20 -1 6 1 60 1 120 1 61 -1 117
-1 125 -1 168 2 207 2 215 1 6 -2 15 -2 20 -1 6 1 60 1 120 1 61 -1 117 -1
125 -1 168 2 207 2 215 1 6 -2 15 -2 20 -1 6 1 60 1 120 1 61 -1 117 -1 125
-1 168 2 207 2 215 1 6 -2 15 -2 20 -1 6 1 60 1 120 1 61 -1 117 -1 125 -1
168 2 207 2 215 1 6 -2 15 -2 20 -1 6 1 60 1 120 1 61 -1 117 -1 125 -1 168 2
207 2 215 1 6 -2 15 -2 20 -1 6 1 60 1 120 1 61 -1 117 -1 125 -1 168 2 207 2
215 1 6 -2 15 -2 20 -1 6 1 60 1 120 1 61 -1 117 -1 125 -1 168 2 207 2 215 1
6 -2 15 -2 20 -1 6 1 60 1 120 1 61 -1 117 -1 125 -1 173 2 211 2 219 -3 5 -4
12 -2 16 3 3 6 11 8 18 6 7 -2 39 -7 72 -10 70 -6 115 -21 170 -56 84 -54 154
-160 169 -253 4 -21 9 -42 12 -47 3 -5 1 -9 -4 -9 -5 0 -6 -20 -2 -45 4 -25 4
-48 0 -50 -5 -3 -4 -21 0 -40 4 -19 5 -35 1 -35 -3 0 -5 -28 -4 -62 2 -35 3
-82 3 -105 -1 -24 -1 -50 -1 -58 0 -8 0 -35 0 -60 0 -25 0 -52 0 -60 0 -8 0
-35 0 -60 0 -25 0 -52 0 -60 0 -8 0 -35 0 -60 0 -25 0 -52 0 -60 0 -8 0 -35 0
-60 0 -25 0 -52 0 -60 0 -8 0 -35 0 -60 0 -25 0 -52 0 -60 0 -8 0 -35 0 -60 0
-25 0 -52 0 -60 0 -8 0 -35 0 -60 0 -25 0 -52 0 -60 0 -8 1 -36 1 -61 1 -25 0
-48 -3 -50 -3 -3 -1 -21 3 -40 4 -18 5 -34 1 -34 -4 0 -4 -24 -1 -54 3 -29 3
-65 -1 -79 -4 -13 -3 -30 1 -37 4 -7 4 -25 0 -40 -4 -15 -4 -33 0 -40 4 -7 4
-25 0 -40 -4 -15 -4 -33 0 -40 4 -7 4 -25 0 -40 -4 -15 -4 -33 0 -40 4 -7 4
-25 0 -40 -4 -15 -4 -33 0 -40 4 -7 4 -25 0 -40 -4 -15 -4 -33 0 -40 4 -7 4
-25 0 -40 -4 -15 -4 -33 0 -40 4 -7 4 -25 0 -40 -4 -15 -4 -34 1 -43 6 -9 6
-18 0 -21 -5 -3 -5 -21 -1 -41 4 -19 4 -35 0 -35 -4 0 -4 -17 0 -38 3 -21 3
-47 0 -58 -4 -10 -4 -28 0 -39 4 -11 4 -29 0 -40 -4 -11 -4 -29 0 -40 4 -11 4
-32 0 -46 -4 -15 -4 -32 0 -39 4 -7 4 -25 0 -40 -4 -15 -4 -33 0 -40 4 -7 4
-25 0 -40 -4 -15 -4 -33 0 -41 5 -7 6 -17 3 -22 -3 -5 -5 -41 -4 -81 1 -39 2
-77 2 -83 0 -7 0 -33 0 -58 0 -25 0 -52 0 -60 0 -8 0 -35 0 -60 0 -25 0 -52 0
-60 0 -8 0 -35 0 -60 0 -25 0 -52 0 -60 0 -8 0 -35 0 -60 0 -25 0 -52 0 -60 0
-8 0 -35 0 -60 0 -25 0 -52 0 -60 0 -8 0 -35 0 -60 0 -25 0 -52 0 -60 0 -8 0
-35 0 -60 0 -25 0 -52 0 -60 0 -8 0 -35 0 -60 0 -25 0 -52 0 -60 0 -8 -1 -35
-1 -60 -1 -24 1 -49 5 -55 3 -5 2 -10 -2 -10 -5 0 -6 -24 -3 -54 3 -29 3 -65
-1 -79 -4 -13 -3 -30 1 -37 4 -7 4 -25 0 -40 -4 -15 -4 -33 0 -40 4 -7 4 -25
0 -40 -4 -15 -4 -33 0 -40 4 -7 4 -25 0 -40 -4 -15 -4 -33 0 -40 4 -7 4 -25 0
-40 -4 -15 -4 -33 0 -40 4 -7 4 -25 0 -40 -4 -15 -4 -33 0 -40 4 -7 4 -25 0
-40 -4 -15 -4 -33 0 -41 5 -7 6 -17 3 -22 -5 -8 -8 -171 -3 -192 1 -5 1 -14 0
-20 -2 -13 -2 -87 0 -100 1 -5 1 -14 0 -20 -2 -13 -2 -87 0 -100 1 -5 1 -14 0
-20 -2 -13 -2 -87 0 -100 1 -5 1 -14 0 -20 -4 -21 -1 -95 4 -104 4 -5 2 -12
-3 -15 -5 -3 -5 -20 -2 -38 4 -18 4 -48 0 -66 -4 -17 -3 -35 2 -38 5 -3 7 -10
3 -15 -5 -9 -8 -83 -4 -104 1 -5 1 -14 0 -20 -5 -25 -3 -95 2 -101 4 -3 3 -16
-2 -29 -5 -13 -7 -25 -4 -28 3 -3 5 -31 4 -63 0 -33 -1 -68 -1 -79 1 -25 0
-85 0 -145 -1 -25 0 -49 1 -55 1 -5 1 -14 0 -20 -2 -13 -2 -87 0 -100 1 -5 1
-14 0 -20 -2 -13 -2 -87 0 -100 1 -5 1 -14 0 -20 -2 -13 -2 -87 0 -100 1 -5 1
-14 0 -20 -4 -21 -1 -95 4 -104 4 -5 2 -12 -3 -15 -5 -3 -5 -21 -1 -41 4 -19
4 -35 0 -35 -4 0 -4 -18 0 -40 4 -22 5 -40 1 -40 -3 0 -7 -21 -8 -45 -3 -67
-56 -167 -117 -221 -67 -61 -119 -86 -206 -101 -33 -5 -212 -3 -221 3 -4 2
-10 0 -14 -6 -4 -6 -11 -8 -16 -4 -5 3 -42 5 -82 5 -39 -1 -81 -2 -92 -2 -11
0 -65 0 -119 1 -55 0 -101 -2 -104 -4 -2 -3 -15 -1 -28 4 -14 6 -26 6 -29 -1
-4 -5 -11 -7 -16 -3 -6 3 -54 5 -107 4 -53 0 -104 -1 -112 -1 -112 1 -184 0
-188 -4 -2 -2 -15 0 -28 5 -14 6 -26 6 -29 -1 -4 -5 -11 -7 -16 -3 -6 3 -54 5
-107 4 -53 0 -104 -1 -112 -1 -8 0 -53 0 -100 0 -101 -1 -106 -1 -148 4 -18 3
-34 1 -37 -3 -2 -3 -23 -4 -47 -1 -23 3 -75 4 -116 1 -40 -3 -82 -2 -92 2 -11
4 -22 3 -25 -3 -4 -5 -11 -7 -16 -3 -6 3 -54 5 -107 4 -53 0 -104 -1 -112 -1
-112 1 -184 0 -188 -4 -2 -2 -15 0 -28 5 -14 6 -26 6 -29 -1 -4 -5 -11 -7 -16
-3 -6 3 -54 5 -107 4 -53 0 -104 -1 -112 -1 -112 1 -184 0 -188 -4 -2 -2 -15
0 -28 5 -14 6 -26 6 -29 -1 -4 -5 -11 -7 -16 -3 -6 3 -54 5 -107 4 -53 0 -104
-1 -112 -1 -112 1 -184 0 -188 -4 -2 -2 -15 0 -28 5 -14 6 -26 6 -29 -1 -4 -5
-11 -7 -16 -3 -6 3 -54 5 -107 4 -53 0 -104 -1 -112 -1 -112 1 -184 0 -188 -4
-2 -2 -15 0 -28 5 -14 6 -26 6 -29 -1 -4 -5 -11 -7 -16 -3 -6 3 -54 5 -107 4
-53 0 -104 -1 -112 -1 -112 1 -184 0 -188 -4 -2 -2 -15 0 -28 5 -14 6 -26 6
-29 -1 -4 -5 -11 -7 -16 -3 -6 3 -54 5 -107 4 -53 0 -104 -1 -112 -1 -112 1
-184 0 -188 -4 -2 -2 -15 0 -28 5 -14 6 -26 6 -29 -1 -4 -5 -11 -7 -16 -3 -6
3 -54 5 -107 4 -53 0 -104 -1 -112 -1 -112 1 -184 0 -188 -4 -2 -2 -15 0 -28
5 -14 6 -26 6 -29 -1 -4 -5 -11 -7 -16 -3 -6 3 -54 5 -107 4 -53 0 -104 -1
-112 -1 -8 0 -53 0 -100 0 -47 -1 -89 -1 -95 0 -96 4 -198 48 -263 112 -46 46
-98 144 -103 194 -2 17 -7 35 -12 42 -4 6 -4 14 1 17 6 3 7 21 2 41 -4 19 -4
37 0 40 5 3 5 18 1 33 -4 15 -6 38 -4 52 2 14 3 66 3 115 -1 135 -1 135 0 210
1 39 1 75 0 80 -1 6 -1 30 -1 55 1 25 1 86 1 135 -1 134 -1 134 0 210 1 39 1
75 0 80 -1 6 -1 30 -1 55 1 25 1 86 1 135 -1 108 0 152 3 185 2 14 0 40 -4 58
-4 17 -3 34 1 37 5 3 5 18 0 34 -4 15 -4 34 0 41 4 6 4 27 0 46 -4 19 -4 36 0
39 5 3 5 18 0 34 -4 15 -4 34 0 41 4 6 4 27 0 46 -4 19 -4 36 0 39 5 3 5 18 0
34 -4 15 -4 34 0 41 4 6 4 27 0 46 -4 19 -4 36 0 39 5 3 5 18 1 33 -4 15 -6
38 -4 52 2 14 3 66 3 115 -1 135 -1 135 0 210 1 39 1 75 0 80 -1 6 -1 30 -1
55 1 25 1 86 1 135 -1 134 -1 134 0 210 1 39 1 75 0 80 -1 6 -1 30 -1 55 1 25
1 86 1 135 -1 108 0 152 3 185 2 14 0 40 -4 58 -4 17 -3 34 1 37 5 3 5 18 0
34 -4 15 -4 34 0 41 4 6 4 27 0 46 -4 19 -4 36 0 39 5 3 5 18 0 34 -4 15 -4
34 0 41 4 6 4 27 0 46 -4 19 -4 36 0 39 5 3 5 18 0 34 -4 15 -4 34 0 41 4 6 4
27 0 46 -4 19 -4 36 0 39 5 3 5 18 1 33 -4 15 -6 38 -4 52 2 14 3 66 3 115 -1
135 -1 135 0 210 1 39 1 75 0 80 -1 6 -1 30 -1 55 1 25 1 86 1 135 -1 134 -1
134 0 210 1 39 1 75 0 80 -1 6 -1 30 -1 55 1 25 1 86 1 135 -1 108 0 152 3
185 2 14 0 40 -4 58 -4 17 -3 34 1 37 5 3 5 18 0 34 -4 15 -4 34 0 41 4 6 4
27 0 46 -4 19 -4 36 0 39 5 3 5 18 0 34 -4 15 -4 34 0 41 4 6 4 27 0 46 -4 19
-4 36 0 39 5 3 5 18 0 34 -4 15 -4 34 0 41 4 6 4 27 0 46 -4 19 -4 36 0 39 5
3 5 18 1 33 -4 15 -6 38 -4 52 2 14 3 66 3 115 -1 135 -1 135 0 210 1 39 1 75
0 80 -1 6 -1 30 -1 55 1 40 1 183 0 250 -1 80 10 239 19 260 5 14 9 27 9 30
-2 10 67 104 97 132 38 35 151 90 188 92 16 0 28 4 28 8 0 4 11 4 23 -1 13 -5
30 -5 37 -1z"/>
<path d="M2999 6126 c-2 -2 -33 -7 -69 -10 -36 -4 -79 -9 -96 -12 -17 -3 -46
-7 -65 -9 -95 -11 -131 -19 -399 -89 -46 -12 -226 -84 -308 -123 -485 -231
-885 -653 -1116 -1174 -50 -113 -123 -345 -141 -444 -2 -16 -7 -41 -10 -55 -5
-25 -11 -58 -20 -107 -5 -30 -14 -118 -20 -193 -5 -64 -5 -315 0 -380 7 -87
17 -139 51 -290 10 -41 10 -44 22 -73 7 -16 12 -31 12 -34 0 -14 74 -178 82
-181 4 -2 8 -8 8 -13 0 -10 75 -132 100 -163 217 -266 461 -425 805 -525 39
-11 85 -23 104 -26 19 -3 37 -7 40 -9 9 -5 102 -19 134 -20 15 -1 27 -3 27 -6
0 -3 12 -5 28 -6 15 0 65 -4 112 -9 100 -9 341 -9 472 0 88 6 118 9 240 20 29
3 91 11 138 19 47 8 105 18 130 21 24 4 47 8 51 10 3 2 21 7 40 10 67 12 256
64 329 90 25 9 52 18 60 20 21 5 196 73 255 99 28 13 69 31 92 41 43 19 42 18
59 115 3 14 14 70 25 125 11 55 22 114 25 130 3 17 9 48 14 70 5 22 12 56 15
75 10 61 15 84 20 110 3 14 7 36 9 50 2 14 7 36 10 50 3 14 8 37 11 53 3 15 7
39 10 55 3 15 10 50 15 77 5 28 12 61 15 75 3 14 7 34 9 45 2 11 6 34 9 50 4
17 9 41 11 55 3 14 8 39 11 55 18 94 64 336 71 370 4 22 8 45 10 50 1 6 5 24
8 40 3 17 8 41 11 55 21 105 26 144 17 149 -8 5 -1459 7 -1508 2 -5 -1 -18
-40 -27 -88 -9 -49 -28 -144 -41 -213 -14 -69 -27 -138 -29 -155 -3 -16 -8
-41 -11 -55 -3 -14 -8 -36 -10 -50 -2 -14 -7 -41 -11 -61 l-7 -36 301 1 c295
1 300 1 296 -19 -13 -63 -29 -142 -30 -155 -2 -12 -82 -420 -90 -455 -1 -5 -5
-32 -10 -58 -9 -55 -13 -59 -115 -82 -96 -21 -106 -23 -155 -30 -22 -4 -53 -9
-70 -12 -49 -9 -348 -11 -406 -2 -88 12 -134 21 -142 26 -4 2 -20 7 -35 9 -45
9 -193 82 -250 125 -187 142 -295 346 -328 624 -13 108 -5 439 11 464 2 4 6
27 10 51 3 25 8 52 10 60 2 8 7 29 9 45 3 17 15 59 27 95 12 36 22 70 24 75
10 39 76 178 127 267 56 98 181 246 292 346 54 48 171 132 185 132 5 0 11 3
13 8 10 24 311 147 383 156 11 1 31 5 45 9 175 45 494 41 755 -10 166 -32 466
-136 585 -203 96 -53 210 -108 214 -102 2 4 9 34 15 67 6 33 13 71 16 85 3 14
8 41 11 60 3 19 7 43 10 52 3 9 6 25 8 35 2 10 7 36 11 58 4 22 9 49 11 60 5
28 16 88 19 100 1 6 5 26 8 45 4 19 10 49 13 65 31 165 39 149 -111 206 -71
27 -139 51 -150 54 -11 2 -20 4 -20 5 0 1 -7 3 -15 5 -8 1 -37 10 -65 19 -47
16 -191 55 -225 60 -8 2 -28 6 -45 9 -16 4 -41 9 -55 11 -14 3 -36 7 -50 10
-14 3 -72 13 -130 21 -58 8 -125 17 -150 20 -47 7 -585 16 -591 11z"/>
<path d="M5618 4995 c-2 -2 -25 -5 -53 -8 -27 -3 -59 -8 -70 -10 -44 -10 -109
-29 -124 -36 -113 -56 -154 -80 -201 -114 -61 -44 -168 -150 -215 -212 -131
-172 -228 -396 -253 -585 -9 -71 -9 -269 1 -342 22 -167 115 -339 235 -434 58
-46 157 -99 202 -108 14 -3 36 -8 50 -11 111 -27 277 -22 379 11 121 40 212
97 323 202 l76 73 -18 -85 c-30 -136 -40 -166 -81 -251 -69 -144 -189 -242
-338 -276 -26 -6 -55 -13 -66 -16 -41 -10 -252 -12 -310 -3 -81 12 -110 19
-140 30 -14 5 -25 7 -25 4 0 -4 -6 -2 -12 3 -7 5 -35 18 -61 27 -26 10 -80 35
-119 57 -38 21 -74 37 -78 34 -4 -2 -11 -26 -14 -52 -4 -27 -9 -55 -11 -63 -2
-8 -10 -53 -19 -100 -8 -47 -18 -96 -21 -110 -3 -14 -7 -38 -9 -55 -2 -16 -7
-38 -11 -47 -8 -21 10 -29 125 -60 185 -49 270 -60 500 -61 161 -2 289 5 350
19 14 3 37 7 51 9 15 2 53 11 85 20 33 9 64 17 71 19 7 1 16 5 19 9 4 4 14 7
22 7 22 0 175 74 238 116 76 51 201 175 251 249 75 112 160 317 187 451 29
142 58 287 61 310 2 16 9 47 14 69 11 46 22 108 27 145 1 14 3 25 4 25 2 0 4
9 6 20 1 11 5 30 7 41 6 22 17 85 22 119 2 11 4 21 5 23 3 3 5 10 15 67 4 28
10 57 12 65 2 8 6 26 8 40 4 26 10 55 21 103 3 16 7 38 9 50 2 12 8 47 14 77
6 30 14 69 17 85 3 17 10 50 15 75 6 25 12 56 14 70 5 37 15 89 26 138 5 23
12 59 15 80 3 20 8 40 11 45 6 9 20 9 -305 11 -310 1 -286 6 -298 -59 -2 -14
-7 -37 -10 -52 -3 -16 -8 -44 -10 -63 -3 -20 -8 -48 -12 -64 l-8 -28 -28 43
c-95 143 -240 237 -394 255 -51 6 -170 12 -174 9z m297 -441 c86 -27 159 -112
181 -209 18 -78 9 -248 -19 -370 -9 -37 -49 -140 -61 -155 -7 -8 -18 -28 -26
-45 -23 -47 -141 -159 -190 -182 -96 -44 -99 -45 -200 -46 -152 -2 -236 59
-279 201 -32 104 -17 322 31 451 71 188 193 316 338 356 70 18 163 18 225 -1z"/>
</g>
</svg>
