<?xml version="1.0" encoding="iso-8859-1"?>
<!-- Generator: Adobe Illustrator 19.0.0, SVG Export Plug-In . SVG Version: 6.00 Build 0)  -->
<svg version="1.1" id="Capa_1" xmlns="http://www.w3.org/2000/svg" xmlns:xlink="http://www.w3.org/1999/xlink" x="0px" y="0px"
	 viewBox="0 0 398.28 398.28" style="enable-background:new 0 0 398.28 398.28;" xml:space="preserve">
<g>
	<g>
		<path d="M198.951,212.6c-24.3,0.052-43.958,19.794-43.905,44.094c0.025,11.621,4.646,22.76,12.854,30.985
			c8.277,8.295,19.522,12.945,31.24,12.92c24.3-0.052,43.958-19.794,43.905-44.094C242.993,232.205,223.251,212.548,198.951,212.6z
			 M220.1,277.395c-11.574,11.576-30.341,11.577-41.917,0.003c-5.559-5.558-8.682-13.097-8.683-20.957
			c-0.01-7.863,3.114-15.406,8.68-20.96c11.574-11.576,30.341-11.577,41.917-0.003C231.673,247.052,231.674,265.819,220.1,277.395z"
			/>
	</g>
</g>
<g>
	<g>
		<path d="M330.14,38h-11V26c0-14.359-11.641-26-26-26c-14.359,0-26,11.641-26,26v12H130.9V26c0-14.359-11.641-26-26-26
			c-14.359,0-26,11.641-26,26v12H68.14c-27.085,0.132-48.978,22.115-49,49.2v261.96c0.066,27.101,22.019,49.054,49.12,49.12
			l-0.12-0.08h262c27.054-0.132,48.934-22.066,49-49.12V87.2C379.118,60.115,357.225,38.132,330.14,38z M281.9,26.2
			c0.373-6.285,5.77-11.078,12.055-10.705c5.765,0.342,10.363,4.94,10.705,10.705v33c-0.373,6.285-5.77,11.078-12.055,10.705
			c-5.765-0.342-10.363-4.94-10.705-10.705V26.2z M93.58,26.2c0.373-6.285,5.77-11.078,12.055-10.705
			c5.765,0.342,10.363,4.94,10.705,10.705v33c-0.373,6.285-5.77,11.078-12.055,10.705C98.52,69.563,93.922,64.965,93.58,59.2V26.2z
			 M364.7,349.16c-0.066,19.06-15.5,34.494-34.56,34.56h-262c-19.06-0.066-34.494-15.5-34.56-34.56V130.92H364.7V349.16z
			 M364.7,116.4H33.58V87.2c0.066-19.06,15.5-34.494,34.56-34.56h11v6.56c0,14.359,11.641,26,26,26c14.359,0,26-11.641,26-26v-6.68
			h136.24v6.68c0,14.359,11.641,26,26,26c14.359,0,26-11.641,26-26v-6.68h10.92c19.044,0.154,34.401,15.636,34.4,34.68V116.4z"/>
	</g>
</g>
<g>
	<g>
		<path d="M292.82,239.08c-1.79-2.298-3.921-4.308-6.32-5.96c4.05-8.424,3.676-18.306-1-26.4
			c-4.662-8.106-13.035-13.378-22.36-14.08c-1.178-15.574-14.759-27.244-30.333-26.066c-3.508,0.265-6.936,1.183-10.107,2.706
			c-8.842-12.901-26.469-16.192-39.37-7.35c-2.882,1.976-5.374,4.467-7.35,7.35c-2.628-1.261-5.434-2.111-8.32-2.52
			c-6.068-0.862-12.25,0.29-17.6,3.28l-0.48,0.24c-8.239,4.581-13.654,12.966-14.44,22.36
			c-15.574,1.178-27.244,14.759-26.066,30.333c0.265,3.508,1.183,6.936,2.706,10.107c-2.339,1.717-4.403,3.781-6.12,6.12
			c-8.084,10.192-8.084,24.608,0,34.8c1.802,2.241,3.933,4.197,6.32,5.8h0c-6.79,14.065-0.892,30.972,13.173,37.762
			c3.133,1.513,6.519,2.434,9.987,2.718c1.178,15.574,14.759,27.244,30.333,26.066c3.508-0.265,6.936-1.183,10.107-2.706
			c1.652,2.399,3.662,4.53,5.96,6.32c10.192,8.084,24.608,8.084,34.8,0c2.298-1.789,4.308-3.921,5.96-6.32
			c2.628,1.261,5.434,2.111,8.32,2.52c6.068,0.862,12.25-0.29,17.6-3.28l0.48-0.24c8.239-4.581,13.654-12.966,14.44-22.36
			c15.574-1.178,27.244-14.759,26.066-30.333c-0.265-3.508-1.183-6.936-2.706-10.107c2.399-1.652,4.531-3.662,6.32-5.96
			C300.904,263.688,300.904,249.272,292.82,239.08z M283.801,259.899c-1.227,4.984-5.118,8.875-10.102,10.101
			c-3.882,0.96-6.25,4.885-5.29,8.766c0.342,1.381,1.083,2.631,2.13,3.594c5.419,5.391,5.441,14.154,0.051,19.573
			c-3.553,3.571-8.766,4.93-13.611,3.547c-3.849-1.082-7.847,1.162-8.929,5.011c-0.363,1.292-0.36,2.659,0.009,3.949
			c0.776,2.9,0.593,5.972-0.52,8.76c-1.148,2.848-3.219,5.228-5.88,6.76h-0.32c-5.458,2.944-12.209,1.898-16.52-2.56
			c-2.775-2.879-7.358-2.964-10.237-0.189c-0.981,0.945-1.675,2.147-2.003,3.469c-1.822,7.401-9.298,11.923-16.698,10.102
			c-4.984-1.227-8.875-5.118-10.102-10.102c-0.96-3.882-4.885-6.25-8.766-5.29c-1.381,0.342-2.631,1.083-3.594,2.13
			c-5.391,5.419-14.154,5.441-19.573,0.051c-3.571-3.553-4.93-8.766-3.547-13.611c1.082-3.849-1.162-7.847-5.011-8.929
			c-1.292-0.363-2.659-0.36-3.949,0.009c-2.97,0.843-6.136,0.674-9-0.48c-7.064-2.862-10.469-10.909-7.607-17.973
			c0.725-1.789,1.818-3.407,3.207-4.747c2.879-2.775,2.964-7.358,0.189-10.237c-0.945-0.981-2.147-1.675-3.469-2.003
			c-7.414-1.859-11.918-9.376-10.059-16.79c0.468-1.865,1.319-3.612,2.499-5.13l-0.04,0.12c1.936-2.314,4.578-3.93,7.52-4.6
			c3.882-0.96,6.25-4.885,5.29-8.766c-0.342-1.381-1.083-2.631-2.13-3.594c-5.419-5.391-5.441-14.154-0.051-19.573
			c3.553-3.571,8.766-4.93,13.611-3.547c3.849,1.082,7.847-1.162,8.929-5.011c0.363-1.292,0.36-2.659-0.009-3.949
			c-0.843-2.97-0.674-6.136,0.48-9c1.148-2.848,3.219-5.228,5.88-6.76h0.32c5.458-2.944,12.209-1.898,16.52,2.56
			c2.775,2.879,7.358,2.964,10.237,0.189c0.981-0.945,1.675-2.147,2.003-3.469c1.822-7.401,9.298-11.923,16.699-10.102
			c4.984,1.227,8.875,5.118,10.101,10.102c0.96,3.882,4.885,6.25,8.766,5.29c1.381-0.342,2.631-1.083,3.594-2.13
			c5.391-5.419,14.154-5.441,19.573-0.05c3.571,3.553,4.93,8.766,3.547,13.61c-1.082,3.849,1.162,7.847,5.011,8.929
			c1.292,0.363,2.659,0.36,3.949-0.009c2.97-0.843,6.136-0.674,9,0.48c2.848,1.148,5.228,3.219,6.76,5.88
			c3.176,5.489,2.202,12.436-2.36,16.84c-2.795,2.859-2.744,7.443,0.115,10.238c0.913,0.893,2.046,1.528,3.285,1.842
			C281.101,245.022,285.623,252.498,283.801,259.899z"/>
	</g>
</g>
<g>
</g>
<g>
</g>
<g>
</g>
<g>
</g>
<g>
</g>
<g>
</g>
<g>
</g>
<g>
</g>
<g>
</g>
<g>
</g>
<g>
</g>
<g>
</g>
<g>
</g>
<g>
</g>
<g>
</g>
</svg>
